<mxfile host="app.diagrams.net" modified="2023-07-11T02:47:07.270Z" agent="Mozilla/5.0 (Windows NT 10.0; Win64; x64) AppleWebKit/537.36 (KHTML, like Gecko) Chrome/114.0.0.0 Safari/537.36" version="21.6.1" etag="MFIS_gN_TMPIckXL351j" type="github">
  <diagram name="Page-1" id="h9SgExqFTL5A_UgQcghU">
    <mxGraphModel>
      <root>
        <mxCell id="0" />
        <mxCell id="1" parent="0" />
      </root>
    </mxGraphModel>
  </diagram>
</mxfile>
